# This file uses centimeters as units for non-parametric coordinates.

mtllib treeleaf.mtl
g default
v -0.411785 0.014317 -0.741529
v 3.002127 1.935954 1.450961
v 2.547661 2.278057 -2.918504
v 6.064699 0.040660 -1.237843
v 3.722518 1.747851 -2.193250
v 3.995122 1.542648 0.427689
v 1.106987 1.660029 -2.083159
v 1.381906 1.453082 0.560047
v 4.147468 0.702740 -0.988575
v 3.130093 1.067155 -0.854591
v 0.909855 0.862730 -0.782995
v 2.013457 1.187086 -0.872882
v 2.040289 2.156844 -2.729379
v 2.360619 1.830479 1.034053
v 0.921158 0.854221 -0.674322
v -0.115420 0.222632 -0.555249
v 0.963973 0.782589 -1.382685
v 1.515575 0.985421 -1.036387
v 1.532356 0.941280 -0.622323
v 1.033455 1.220051 0.072267
v 1.041618 1.213893 0.346159
v 0.862823 1.431224 -1.883635
v 1.396635 1.103727 -0.815007
v 1.398840 1.097925 -0.760584
v 1.909020 1.656340 0.815337
v 1.529307 1.884838 -2.375573
vt 0.499678 0.500322
vt 0.768565 0.231435
vt 0.835635 0.469322
vt 0.652449 0.652508
vt 0.653889 0.196903
vt 0.433973 0.434556
vt 0.978698 0.977513
vt 0.385170 0.115985
vt 0.464925 0.140001
vt 0.403787 0.201139
vt 0.469808 0.835150
vt 0.231435 0.768565
vt 0.167719 0.556973
vt 0.140001 0.464925
vt 0.231180 0.373746
vt 0.346252 0.395067
vt 0.119997 0.398493
vt 0.000000 0.000000
vt 0.302231 0.302695
vt 0.201256 0.668345
vt 0.393456 0.340909
vt 0.566697 0.170647
vt 0.368741 0.369265
vt 0.374945 0.362147
vt 0.315590 0.289336
vt 0.069460 0.020916
vn 0.007705 0.935879 -0.352239
vn 0.007705 0.935878 -0.352239
vn 0.007705 0.935879 -0.352239
vn 0.105213 0.906520 -0.408843
vn 0.334923 0.941405 0.039779
vn 0.180149 0.982637 0.044400
vn -0.004627 0.944374 -0.328841
vn 0.046816 0.935594 -0.349960
vn 0.180149 0.982637 0.044400
vn 0.180149 0.982637 0.044400
vn -0.182788 0.976457 0.114542
vn -0.004627 0.944374 -0.328841
vn 0.105213 0.906520 -0.408843
vn 0.330729 0.942906 0.039334
vn 0.334923 0.941405 0.039779
vn -0.615910 0.786991 0.036051
vn -0.270364 0.929487 -0.250914
vn -0.416262 0.882295 -0.219731
vn 0.330729 0.942906 0.039334
vn 0.200478 0.833767 0.514433
vn 0.334923 0.941405 0.039779
vn 0.200478 0.833767 0.514433
vn 0.020395 0.864834 0.501644
vn 0.180149 0.982637 0.044400
vn 0.180149 0.982637 0.044400
vn 0.334923 0.941405 0.039779
vn 0.200478 0.833767 0.514433
vn -0.182733 0.826608 0.532285
vn 0.197654 0.591706 0.781548
vn -0.289877 0.852698 0.434599
vn -0.289877 0.852698 0.434599
vn -0.423109 0.905858 -0.020011
vn -0.182733 0.826608 0.532285
vn -0.289877 0.852698 0.434599
vn 0.054745 0.615660 0.786108
vn -0.432591 0.887664 0.157852
vn -0.432591 0.887664 0.157852
vn -0.463089 0.885003 -0.048147
vn -0.289877 0.852698 0.434599
vn 0.180149 0.982637 0.044400
vn 0.020395 0.864834 0.501644
vn -0.039034 0.872391 0.487247
vn -0.039034 0.872391 0.487247
vn -0.182788 0.976457 0.114542
vn 0.180149 0.982637 0.044400
vn -0.182788 0.976457 0.114542
vn -0.234622 0.960328 0.150738
vn -0.238876 0.922600 -0.302899
vn -0.238876 0.922600 -0.302899
vn -0.004627 0.944374 -0.328841
vn -0.182788 0.976457 0.114542
vn -0.182788 0.976457 0.114542
vn -0.310610 0.921419 -0.233469
vn -0.206031 0.859001 0.468688
vn -0.428911 0.900211 -0.075203
vn -0.463089 0.885003 -0.048147
vn -0.432591 0.887664 0.157852
vn -0.432591 0.887664 0.157852
vn -0.533784 0.835054 -0.133263
vn -0.428911 0.900211 -0.075203
vn -0.310610 0.921419 -0.233469
vn -0.182788 0.976457 0.114542
vn -0.423109 0.905858 -0.020011
vn -0.182788 0.976457 0.114542
vn -0.206031 0.859001 0.468688
vn -0.234622 0.960328 0.150738
vn -0.416262 0.882295 -0.219731
vn -0.428911 0.900211 -0.075203
vn -0.533784 0.835054 -0.133263
vn -0.533784 0.835054 -0.133263
vn -0.615910 0.786991 0.036051
vn -0.416262 0.882295 -0.219731
vn -0.289877 0.852698 0.434599
vn 0.197654 0.591706 0.781548
vn 0.054745 0.615660 0.786108
vn -0.463089 0.885003 -0.048147
vn -0.310610 0.921419 -0.233469
vn -0.423109 0.905858 -0.020011
vn -0.423109 0.905858 -0.020011
vn -0.289877 0.852698 0.434599
vn -0.463089 0.885003 -0.048147
vn -0.428911 0.900211 -0.075203
vn -0.206031 0.859001 0.468688
vn -0.310610 0.921419 -0.233469
vn -0.310610 0.921419 -0.233469
vn -0.463089 0.885003 -0.048147
vn -0.428911 0.900211 -0.075203
vn -0.428911 0.900211 -0.075203
vn -0.416262 0.882295 -0.219731
vn -0.234622 0.960328 0.150738
vn -0.234622 0.960328 0.150738
vn -0.206031 0.859001 0.468688
vn -0.428911 0.900211 -0.075203
vn -0.416262 0.882295 -0.219731
vn -0.270364 0.929487 -0.250914
vn -0.238876 0.922600 -0.302899
vn -0.238876 0.922600 -0.302899
vn -0.234622 0.960328 0.150738
vn -0.416262 0.882295 -0.219731
vn -0.182788 0.976457 0.114542
vn -0.039034 0.872391 0.487247
vn -0.182733 0.826608 0.532285
vn -0.182733 0.826608 0.532285
vn -0.423109 0.905858 -0.020011
vn -0.182788 0.976457 0.114542
s off
g BushObj:Plane03
usemtl initialShadingGroup
f 10/1/1 2/2/2 6/3/3
f 6/3/4 9/4/5 10/1/6
f 14/5/7 2/2/8 10/1/9
f 10/1/10 12/6/11 14/5/12
f 6/3/13 4/7/14 9/4/15
f 21/8/16 8/9/17 20/10/18
f 4/7/19 5/11/20 9/4/21
f 5/11/22 3/12/23 10/1/24
f 10/1/25 9/4/26 5/11/27
f 26/13/28 7/14/29 17/15/30
f 17/15/31 18/16/32 26/13/33
f 17/15/34 22/17/35 1/18/36
f 1/18/37 11/19/38 17/15/39
f 10/1/40 3/12/41 13/20/42
f 13/20/43 12/6/44 10/1/45
f 12/6/46 19/21/47 25/22/48
f 25/22/49 14/5/50 12/6/51
f 12/6/52 23/23/53 24/24/54
f 15/25/55 11/19/56 1/18/57
f 1/18/58 16/26/59 15/25/60
f 23/23/61 12/6/62 18/16/63
f 12/6/64 24/24/65 19/21/66
f 20/10/67 15/25/68 16/26/69
f 16/26/70 21/8/71 20/10/72
f 17/15/73 7/14/74 22/17/75
f 11/19/76 23/23/77 18/16/78
f 18/16/79 17/15/80 11/19/81
f 15/25/82 24/24/83 23/23/84
f 23/23/85 11/19/86 15/25/87
f 15/25/88 20/10/89 19/21/90
f 19/21/91 24/24/92 15/25/93
f 20/10/94 8/9/95 25/22/96
f 25/22/97 19/21/98 20/10/99
f 12/6/100 13/20/101 26/13/102
f 26/13/103 18/16/104 12/6/105
